<mxfile host="app.diagrams.net" modified="2021-09-04T16:23:18.689Z" agent="5.0 (Windows NT 10.0; WOW64) AppleWebKit/537.36 (KHTML, like Gecko) Chrome/84.0.4147.89 Safari/537.36 SLBrowser/7.0.0.6241 SLBChan/3" etag="P2zelVYWVxPCLvUqCJ0Q" version="14.8.4" type="github">
  <diagram id="7d82JKUvW4YQ1boGpCtr" name="Page-1">
    <mxGraphModel dx="1490" dy="584" grid="0" gridSize="10" guides="1" tooltips="1" connect="1" arrows="1" fold="1" page="0" pageScale="1" pageWidth="827" pageHeight="1169" math="0" shadow="0">
      <root>
        <mxCell id="0" />
        <mxCell id="1" parent="0" />
        <mxCell id="AICxbZweolCnIgFg_KJw-3" value="" style="rounded=0;whiteSpace=wrap;html=1;" parent="1" vertex="1">
          <mxGeometry x="40" y="120" width="280" height="80" as="geometry" />
        </mxCell>
        <mxCell id="AICxbZweolCnIgFg_KJw-4" value="" style="endArrow=none;html=1;entryX=1;entryY=0.75;entryDx=0;entryDy=0;" parent="1" target="AICxbZweolCnIgFg_KJw-3" edge="1">
          <mxGeometry width="50" height="50" relative="1" as="geometry">
            <mxPoint x="40" y="180" as="sourcePoint" />
            <mxPoint x="360" y="260" as="targetPoint" />
          </mxGeometry>
        </mxCell>
        <mxCell id="AICxbZweolCnIgFg_KJw-5" value="" style="endArrow=none;html=1;entryX=1;entryY=0.5;entryDx=0;entryDy=0;" parent="1" edge="1" target="AICxbZweolCnIgFg_KJw-3">
          <mxGeometry width="50" height="50" relative="1" as="geometry">
            <mxPoint x="40" y="159.5" as="sourcePoint" />
            <mxPoint x="240" y="159.5" as="targetPoint" />
          </mxGeometry>
        </mxCell>
        <mxCell id="AICxbZweolCnIgFg_KJw-6" value="" style="endArrow=none;html=1;entryX=1;entryY=0.25;entryDx=0;entryDy=0;" parent="1" edge="1" target="AICxbZweolCnIgFg_KJw-3">
          <mxGeometry width="50" height="50" relative="1" as="geometry">
            <mxPoint x="40" y="140" as="sourcePoint" />
            <mxPoint x="240" y="140" as="targetPoint" />
          </mxGeometry>
        </mxCell>
        <mxCell id="AICxbZweolCnIgFg_KJw-7" value="" style="endArrow=none;html=1;" parent="1" edge="1">
          <mxGeometry width="50" height="50" relative="1" as="geometry">
            <mxPoint x="120" y="200" as="sourcePoint" />
            <mxPoint x="120" y="120" as="targetPoint" />
          </mxGeometry>
        </mxCell>
        <mxCell id="AICxbZweolCnIgFg_KJw-8" value="" style="endArrow=none;html=1;" parent="1" edge="1">
          <mxGeometry width="50" height="50" relative="1" as="geometry">
            <mxPoint x="200" y="200" as="sourcePoint" />
            <mxPoint x="200" y="120" as="targetPoint" />
          </mxGeometry>
        </mxCell>
        <mxCell id="AICxbZweolCnIgFg_KJw-9" value="vaddr" style="text;html=1;strokeColor=none;fillColor=none;align=center;verticalAlign=middle;whiteSpace=wrap;rounded=0;" parent="1" vertex="1">
          <mxGeometry x="60" y="120" width="40" height="20" as="geometry" />
        </mxCell>
        <mxCell id="AICxbZweolCnIgFg_KJw-10" value="paddr" style="text;html=1;strokeColor=none;fillColor=none;align=center;verticalAlign=middle;whiteSpace=wrap;rounded=0;" parent="1" vertex="1">
          <mxGeometry x="140" y="120" width="40" height="20" as="geometry" />
        </mxCell>
        <mxCell id="AICxbZweolCnIgFg_KJw-11" value="a/d" style="text;html=1;strokeColor=none;fillColor=none;align=center;verticalAlign=middle;whiteSpace=wrap;rounded=0;" parent="1" vertex="1">
          <mxGeometry x="280" y="120" width="40" height="20" as="geometry" />
        </mxCell>
        <mxCell id="AICxbZweolCnIgFg_KJw-12" value="" style="rounded=0;whiteSpace=wrap;html=1;" parent="1" vertex="1">
          <mxGeometry x="360" y="45" width="120" height="195" as="geometry" />
        </mxCell>
        <mxCell id="VZ1daqJ9Y80Mt52T-TWn-2" value="" style="rounded=0;whiteSpace=wrap;html=1;strokeWidth=1;opacity=70;" vertex="1" parent="1">
          <mxGeometry x="360" y="135" width="120" height="40" as="geometry" />
        </mxCell>
        <mxCell id="VZ1daqJ9Y80Mt52T-TWn-3" value="" style="endArrow=none;html=1;exitX=0;exitY=0.5;exitDx=0;exitDy=0;entryX=1;entryY=0.5;entryDx=0;entryDy=0;" edge="1" parent="1" source="VZ1daqJ9Y80Mt52T-TWn-2" target="VZ1daqJ9Y80Mt52T-TWn-2">
          <mxGeometry width="50" height="50" relative="1" as="geometry">
            <mxPoint x="270" y="285" as="sourcePoint" />
            <mxPoint x="320" y="235" as="targetPoint" />
          </mxGeometry>
        </mxCell>
        <mxCell id="VZ1daqJ9Y80Mt52T-TWn-5" value="内存中的PTE" style="text;html=1;strokeColor=none;fillColor=none;align=center;verticalAlign=middle;whiteSpace=wrap;rounded=0;opacity=70;" vertex="1" parent="1">
          <mxGeometry x="380" y="100" width="80" height="20" as="geometry" />
        </mxCell>
        <mxCell id="VZ1daqJ9Y80Mt52T-TWn-6" value="TLB" style="text;html=1;strokeColor=none;fillColor=none;align=center;verticalAlign=middle;whiteSpace=wrap;rounded=0;opacity=70;" vertex="1" parent="1">
          <mxGeometry x="160" y="90" width="80" height="20" as="geometry" />
        </mxCell>
        <mxCell id="VZ1daqJ9Y80Mt52T-TWn-27" value="addr" style="text;html=1;strokeColor=none;fillColor=none;align=center;verticalAlign=middle;whiteSpace=wrap;rounded=0;" vertex="1" parent="1">
          <mxGeometry x="325" y="155" width="40" height="20" as="geometry" />
        </mxCell>
        <mxCell id="VZ1daqJ9Y80Mt52T-TWn-37" value="" style="rounded=0;whiteSpace=wrap;html=1;" vertex="1" parent="1">
          <mxGeometry x="360" y="320" width="120" height="195" as="geometry" />
        </mxCell>
        <mxCell id="VZ1daqJ9Y80Mt52T-TWn-39" value="" style="rounded=0;whiteSpace=wrap;html=1;strokeWidth=1;opacity=70;" vertex="1" parent="1">
          <mxGeometry x="360" y="410" width="120" height="40" as="geometry" />
        </mxCell>
        <mxCell id="VZ1daqJ9Y80Mt52T-TWn-40" value="" style="endArrow=none;html=1;exitX=0;exitY=0.5;exitDx=0;exitDy=0;entryX=1;entryY=0.5;entryDx=0;entryDy=0;" edge="1" parent="1" source="VZ1daqJ9Y80Mt52T-TWn-39" target="VZ1daqJ9Y80Mt52T-TWn-39">
          <mxGeometry width="50" height="50" relative="1" as="geometry">
            <mxPoint x="270" y="560" as="sourcePoint" />
            <mxPoint x="320" y="510" as="targetPoint" />
          </mxGeometry>
        </mxCell>
        <mxCell id="VZ1daqJ9Y80Mt52T-TWn-41" value="p0" style="rounded=1;whiteSpace=wrap;html=1;strokeWidth=1;fillWeight=4;hachureGap=8;hachureAngle=45;fillColor=#fff2cc;sketch=1;opacity=50;strokeColor=#d6b656;" vertex="1" parent="1">
          <mxGeometry x="360" y="430" width="120" height="20" as="geometry" />
        </mxCell>
        <mxCell id="VZ1daqJ9Y80Mt52T-TWn-42" value="内存中的PTE" style="text;html=1;strokeColor=none;fillColor=none;align=center;verticalAlign=middle;whiteSpace=wrap;rounded=0;opacity=70;" vertex="1" parent="1">
          <mxGeometry x="380" y="375" width="80" height="20" as="geometry" />
        </mxCell>
        <mxCell id="VZ1daqJ9Y80Mt52T-TWn-43" value="TLB" style="text;html=1;strokeColor=none;fillColor=none;align=center;verticalAlign=middle;whiteSpace=wrap;rounded=0;opacity=70;" vertex="1" parent="1">
          <mxGeometry x="160" y="365" width="80" height="20" as="geometry" />
        </mxCell>
        <mxCell id="VZ1daqJ9Y80Mt52T-TWn-46" value="addr" style="text;html=1;strokeColor=none;fillColor=none;align=center;verticalAlign=middle;whiteSpace=wrap;rounded=0;" vertex="1" parent="1">
          <mxGeometry x="325" y="430" width="40" height="20" as="geometry" />
        </mxCell>
        <mxCell id="VZ1daqJ9Y80Mt52T-TWn-86" value="" style="endArrow=classic;html=1;" edge="1" parent="1">
          <mxGeometry width="50" height="50" relative="1" as="geometry">
            <mxPoint x="340" y="240" as="sourcePoint" />
            <mxPoint x="340" y="320" as="targetPoint" />
          </mxGeometry>
        </mxCell>
        <mxCell id="VZ1daqJ9Y80Mt52T-TWn-87" value="&lt;font style=&quot;font-size: 14px&quot;&gt;st p0, addr&lt;/font&gt;" style="text;html=1;strokeColor=none;fillColor=none;align=center;verticalAlign=middle;whiteSpace=wrap;rounded=0;opacity=50;" vertex="1" parent="1">
          <mxGeometry x="140" y="250" width="130" height="30" as="geometry" />
        </mxCell>
        <mxCell id="VZ1daqJ9Y80Mt52T-TWn-88" value="" style="endArrow=none;html=1;" edge="1" parent="1">
          <mxGeometry width="50" height="50" relative="1" as="geometry">
            <mxPoint x="280" y="200" as="sourcePoint" />
            <mxPoint x="280" y="120" as="targetPoint" />
          </mxGeometry>
        </mxCell>
        <mxCell id="VZ1daqJ9Y80Mt52T-TWn-89" value="pteaddr" style="text;html=1;strokeColor=none;fillColor=none;align=center;verticalAlign=middle;whiteSpace=wrap;rounded=0;" vertex="1" parent="1">
          <mxGeometry x="220" y="120" width="40" height="20" as="geometry" />
        </mxCell>
        <mxCell id="VZ1daqJ9Y80Mt52T-TWn-90" value="" style="rounded=0;whiteSpace=wrap;html=1;" vertex="1" parent="1">
          <mxGeometry x="40" y="400" width="280" height="80" as="geometry" />
        </mxCell>
        <mxCell id="VZ1daqJ9Y80Mt52T-TWn-91" value="" style="endArrow=none;html=1;entryX=1;entryY=0.75;entryDx=0;entryDy=0;" edge="1" parent="1" target="VZ1daqJ9Y80Mt52T-TWn-90">
          <mxGeometry width="50" height="50" relative="1" as="geometry">
            <mxPoint x="40" y="460" as="sourcePoint" />
            <mxPoint x="360" y="540" as="targetPoint" />
          </mxGeometry>
        </mxCell>
        <mxCell id="VZ1daqJ9Y80Mt52T-TWn-92" value="" style="endArrow=none;html=1;entryX=1;entryY=0.5;entryDx=0;entryDy=0;" edge="1" parent="1" target="VZ1daqJ9Y80Mt52T-TWn-90">
          <mxGeometry width="50" height="50" relative="1" as="geometry">
            <mxPoint x="40" y="439.5" as="sourcePoint" />
            <mxPoint x="240" y="439.5" as="targetPoint" />
          </mxGeometry>
        </mxCell>
        <mxCell id="VZ1daqJ9Y80Mt52T-TWn-93" value="" style="endArrow=none;html=1;entryX=1;entryY=0.25;entryDx=0;entryDy=0;" edge="1" parent="1" target="VZ1daqJ9Y80Mt52T-TWn-90">
          <mxGeometry width="50" height="50" relative="1" as="geometry">
            <mxPoint x="40" y="420" as="sourcePoint" />
            <mxPoint x="240" y="420" as="targetPoint" />
          </mxGeometry>
        </mxCell>
        <mxCell id="VZ1daqJ9Y80Mt52T-TWn-94" value="" style="endArrow=none;html=1;" edge="1" parent="1">
          <mxGeometry width="50" height="50" relative="1" as="geometry">
            <mxPoint x="120" y="480" as="sourcePoint" />
            <mxPoint x="120" y="400" as="targetPoint" />
          </mxGeometry>
        </mxCell>
        <mxCell id="VZ1daqJ9Y80Mt52T-TWn-95" value="" style="endArrow=none;html=1;" edge="1" parent="1">
          <mxGeometry width="50" height="50" relative="1" as="geometry">
            <mxPoint x="200" y="480" as="sourcePoint" />
            <mxPoint x="200" y="400" as="targetPoint" />
          </mxGeometry>
        </mxCell>
        <mxCell id="VZ1daqJ9Y80Mt52T-TWn-96" value="vaddr" style="text;html=1;strokeColor=none;fillColor=none;align=center;verticalAlign=middle;whiteSpace=wrap;rounded=0;" vertex="1" parent="1">
          <mxGeometry x="60" y="400" width="40" height="20" as="geometry" />
        </mxCell>
        <mxCell id="VZ1daqJ9Y80Mt52T-TWn-97" value="paddr" style="text;html=1;strokeColor=none;fillColor=none;align=center;verticalAlign=middle;whiteSpace=wrap;rounded=0;" vertex="1" parent="1">
          <mxGeometry x="140" y="400" width="40" height="20" as="geometry" />
        </mxCell>
        <mxCell id="VZ1daqJ9Y80Mt52T-TWn-98" value="a/d" style="text;html=1;strokeColor=none;fillColor=none;align=center;verticalAlign=middle;whiteSpace=wrap;rounded=0;" vertex="1" parent="1">
          <mxGeometry x="280" y="400" width="40" height="20" as="geometry" />
        </mxCell>
        <mxCell id="VZ1daqJ9Y80Mt52T-TWn-99" value="" style="endArrow=none;html=1;" edge="1" parent="1">
          <mxGeometry width="50" height="50" relative="1" as="geometry">
            <mxPoint x="280" y="480" as="sourcePoint" />
            <mxPoint x="280" y="400" as="targetPoint" />
          </mxGeometry>
        </mxCell>
        <mxCell id="VZ1daqJ9Y80Mt52T-TWn-100" value="pteaddr" style="text;html=1;strokeColor=none;fillColor=none;align=center;verticalAlign=middle;whiteSpace=wrap;rounded=0;" vertex="1" parent="1">
          <mxGeometry x="220" y="400" width="40" height="20" as="geometry" />
        </mxCell>
        <mxCell id="VZ1daqJ9Y80Mt52T-TWn-101" value="&lt;font style=&quot;font-size: 14px&quot;&gt;ld a0, v0&lt;/font&gt;" style="text;html=1;strokeColor=none;fillColor=none;align=center;verticalAlign=middle;whiteSpace=wrap;rounded=0;opacity=50;" vertex="1" parent="1">
          <mxGeometry x="135" y="280" width="130" height="30" as="geometry" />
        </mxCell>
        <mxCell id="VZ1daqJ9Y80Mt52T-TWn-102" value="v0" style="text;html=1;strokeColor=none;fillColor=none;align=center;verticalAlign=middle;whiteSpace=wrap;rounded=0;opacity=50;" vertex="1" parent="1">
          <mxGeometry x="60" y="438" width="40" height="20" as="geometry" />
        </mxCell>
        <mxCell id="VZ1daqJ9Y80Mt52T-TWn-104" value="p0" style="text;html=1;strokeColor=none;fillColor=none;align=center;verticalAlign=middle;whiteSpace=wrap;rounded=0;opacity=50;" vertex="1" parent="1">
          <mxGeometry x="140" y="438" width="40" height="20" as="geometry" />
        </mxCell>
        <mxCell id="VZ1daqJ9Y80Mt52T-TWn-105" value="addr" style="text;html=1;strokeColor=none;fillColor=none;align=center;verticalAlign=middle;whiteSpace=wrap;rounded=0;opacity=50;" vertex="1" parent="1">
          <mxGeometry x="220" y="438" width="40" height="20" as="geometry" />
        </mxCell>
        <mxCell id="VZ1daqJ9Y80Mt52T-TWn-106" value="a" style="text;html=1;strokeColor=none;fillColor=none;align=center;verticalAlign=middle;whiteSpace=wrap;rounded=0;opacity=50;" vertex="1" parent="1">
          <mxGeometry x="280" y="438" width="40" height="20" as="geometry" />
        </mxCell>
        <mxCell id="VZ1daqJ9Y80Mt52T-TWn-107" value="" style="rounded=1;whiteSpace=wrap;html=1;strokeWidth=2;fillWeight=4;hachureGap=8;hachureAngle=45;fillColor=#fff2cc;sketch=1;opacity=50;strokeColor=#d6b656;" vertex="1" parent="1">
          <mxGeometry x="40" y="440" width="280" height="20" as="geometry" />
        </mxCell>
        <mxCell id="VZ1daqJ9Y80Mt52T-TWn-124" value="" style="rounded=0;whiteSpace=wrap;html=1;" vertex="1" parent="1">
          <mxGeometry x="900" y="320" width="120" height="195" as="geometry" />
        </mxCell>
        <mxCell id="VZ1daqJ9Y80Mt52T-TWn-125" value="" style="rounded=0;whiteSpace=wrap;html=1;strokeWidth=1;opacity=70;" vertex="1" parent="1">
          <mxGeometry x="900" y="410" width="120" height="40" as="geometry" />
        </mxCell>
        <mxCell id="VZ1daqJ9Y80Mt52T-TWn-126" value="" style="endArrow=none;html=1;exitX=0;exitY=0.5;exitDx=0;exitDy=0;entryX=1;entryY=0.5;entryDx=0;entryDy=0;" edge="1" parent="1" source="VZ1daqJ9Y80Mt52T-TWn-125" target="VZ1daqJ9Y80Mt52T-TWn-125">
          <mxGeometry width="50" height="50" relative="1" as="geometry">
            <mxPoint x="810" y="560" as="sourcePoint" />
            <mxPoint x="860" y="510" as="targetPoint" />
          </mxGeometry>
        </mxCell>
        <mxCell id="VZ1daqJ9Y80Mt52T-TWn-127" value="p1" style="rounded=1;whiteSpace=wrap;html=1;strokeWidth=1;fillWeight=4;hachureGap=8;hachureAngle=45;fillColor=#fff2cc;sketch=1;opacity=50;strokeColor=#d6b656;" vertex="1" parent="1">
          <mxGeometry x="900" y="430" width="120" height="20" as="geometry" />
        </mxCell>
        <mxCell id="VZ1daqJ9Y80Mt52T-TWn-128" value="内存中的PTE" style="text;html=1;strokeColor=none;fillColor=none;align=center;verticalAlign=middle;whiteSpace=wrap;rounded=0;opacity=70;" vertex="1" parent="1">
          <mxGeometry x="920" y="375" width="80" height="20" as="geometry" />
        </mxCell>
        <mxCell id="VZ1daqJ9Y80Mt52T-TWn-129" value="TLB" style="text;html=1;strokeColor=none;fillColor=none;align=center;verticalAlign=middle;whiteSpace=wrap;rounded=0;opacity=70;" vertex="1" parent="1">
          <mxGeometry x="700" y="365" width="80" height="20" as="geometry" />
        </mxCell>
        <mxCell id="VZ1daqJ9Y80Mt52T-TWn-130" value="addr" style="text;html=1;strokeColor=none;fillColor=none;align=center;verticalAlign=middle;whiteSpace=wrap;rounded=0;" vertex="1" parent="1">
          <mxGeometry x="865" y="430" width="40" height="20" as="geometry" />
        </mxCell>
        <mxCell id="VZ1daqJ9Y80Mt52T-TWn-131" value="" style="endArrow=classic;html=1;" edge="1" parent="1">
          <mxGeometry width="50" height="50" relative="1" as="geometry">
            <mxPoint x="880" y="320" as="sourcePoint" />
            <mxPoint x="880" y="240" as="targetPoint" />
          </mxGeometry>
        </mxCell>
        <mxCell id="VZ1daqJ9Y80Mt52T-TWn-135" value="" style="rounded=0;whiteSpace=wrap;html=1;" vertex="1" parent="1">
          <mxGeometry x="580" y="400" width="280" height="80" as="geometry" />
        </mxCell>
        <mxCell id="VZ1daqJ9Y80Mt52T-TWn-136" value="" style="endArrow=none;html=1;entryX=1;entryY=0.75;entryDx=0;entryDy=0;" edge="1" parent="1" target="VZ1daqJ9Y80Mt52T-TWn-135">
          <mxGeometry width="50" height="50" relative="1" as="geometry">
            <mxPoint x="580" y="460" as="sourcePoint" />
            <mxPoint x="900" y="540" as="targetPoint" />
          </mxGeometry>
        </mxCell>
        <mxCell id="VZ1daqJ9Y80Mt52T-TWn-137" value="" style="endArrow=none;html=1;entryX=1;entryY=0.5;entryDx=0;entryDy=0;" edge="1" parent="1" target="VZ1daqJ9Y80Mt52T-TWn-135">
          <mxGeometry width="50" height="50" relative="1" as="geometry">
            <mxPoint x="580" y="439.5" as="sourcePoint" />
            <mxPoint x="780" y="439.5" as="targetPoint" />
          </mxGeometry>
        </mxCell>
        <mxCell id="VZ1daqJ9Y80Mt52T-TWn-138" value="" style="endArrow=none;html=1;entryX=1;entryY=0.25;entryDx=0;entryDy=0;" edge="1" parent="1" target="VZ1daqJ9Y80Mt52T-TWn-135">
          <mxGeometry width="50" height="50" relative="1" as="geometry">
            <mxPoint x="580" y="420" as="sourcePoint" />
            <mxPoint x="780" y="420" as="targetPoint" />
          </mxGeometry>
        </mxCell>
        <mxCell id="VZ1daqJ9Y80Mt52T-TWn-139" value="" style="endArrow=none;html=1;" edge="1" parent="1">
          <mxGeometry width="50" height="50" relative="1" as="geometry">
            <mxPoint x="660" y="480" as="sourcePoint" />
            <mxPoint x="660" y="400" as="targetPoint" />
          </mxGeometry>
        </mxCell>
        <mxCell id="VZ1daqJ9Y80Mt52T-TWn-140" value="" style="endArrow=none;html=1;" edge="1" parent="1">
          <mxGeometry width="50" height="50" relative="1" as="geometry">
            <mxPoint x="740" y="480" as="sourcePoint" />
            <mxPoint x="740" y="400" as="targetPoint" />
          </mxGeometry>
        </mxCell>
        <mxCell id="VZ1daqJ9Y80Mt52T-TWn-141" value="vaddr" style="text;html=1;strokeColor=none;fillColor=none;align=center;verticalAlign=middle;whiteSpace=wrap;rounded=0;" vertex="1" parent="1">
          <mxGeometry x="600" y="400" width="40" height="20" as="geometry" />
        </mxCell>
        <mxCell id="VZ1daqJ9Y80Mt52T-TWn-142" value="paddr" style="text;html=1;strokeColor=none;fillColor=none;align=center;verticalAlign=middle;whiteSpace=wrap;rounded=0;" vertex="1" parent="1">
          <mxGeometry x="680" y="400" width="40" height="20" as="geometry" />
        </mxCell>
        <mxCell id="VZ1daqJ9Y80Mt52T-TWn-143" value="a/d" style="text;html=1;strokeColor=none;fillColor=none;align=center;verticalAlign=middle;whiteSpace=wrap;rounded=0;" vertex="1" parent="1">
          <mxGeometry x="820" y="400" width="40" height="20" as="geometry" />
        </mxCell>
        <mxCell id="VZ1daqJ9Y80Mt52T-TWn-144" value="" style="endArrow=none;html=1;" edge="1" parent="1">
          <mxGeometry width="50" height="50" relative="1" as="geometry">
            <mxPoint x="820" y="480" as="sourcePoint" />
            <mxPoint x="820" y="400" as="targetPoint" />
          </mxGeometry>
        </mxCell>
        <mxCell id="VZ1daqJ9Y80Mt52T-TWn-145" value="pteaddr" style="text;html=1;strokeColor=none;fillColor=none;align=center;verticalAlign=middle;whiteSpace=wrap;rounded=0;" vertex="1" parent="1">
          <mxGeometry x="760" y="400" width="40" height="20" as="geometry" />
        </mxCell>
        <mxCell id="VZ1daqJ9Y80Mt52T-TWn-146" value="&lt;font style=&quot;font-size: 14px&quot;&gt;st a1, v0&lt;/font&gt;" style="text;html=1;strokeColor=none;fillColor=none;align=center;verticalAlign=middle;whiteSpace=wrap;rounded=0;opacity=50;" vertex="1" parent="1">
          <mxGeometry x="775" y="270" width="130" height="30" as="geometry" />
        </mxCell>
        <mxCell id="VZ1daqJ9Y80Mt52T-TWn-147" value="v0" style="text;html=1;strokeColor=none;fillColor=none;align=center;verticalAlign=middle;whiteSpace=wrap;rounded=0;opacity=50;" vertex="1" parent="1">
          <mxGeometry x="600" y="438" width="40" height="20" as="geometry" />
        </mxCell>
        <mxCell id="VZ1daqJ9Y80Mt52T-TWn-148" value="p0" style="text;html=1;strokeColor=none;fillColor=none;align=center;verticalAlign=middle;whiteSpace=wrap;rounded=0;opacity=50;" vertex="1" parent="1">
          <mxGeometry x="680" y="438" width="40" height="20" as="geometry" />
        </mxCell>
        <mxCell id="VZ1daqJ9Y80Mt52T-TWn-149" value="addr" style="text;html=1;strokeColor=none;fillColor=none;align=center;verticalAlign=middle;whiteSpace=wrap;rounded=0;opacity=50;" vertex="1" parent="1">
          <mxGeometry x="760" y="438" width="40" height="20" as="geometry" />
        </mxCell>
        <mxCell id="VZ1daqJ9Y80Mt52T-TWn-150" value="a" style="text;html=1;strokeColor=none;fillColor=none;align=center;verticalAlign=middle;whiteSpace=wrap;rounded=0;opacity=50;" vertex="1" parent="1">
          <mxGeometry x="820" y="438" width="40" height="20" as="geometry" />
        </mxCell>
        <mxCell id="VZ1daqJ9Y80Mt52T-TWn-151" value="" style="rounded=1;whiteSpace=wrap;html=1;strokeWidth=2;fillWeight=4;hachureGap=8;hachureAngle=45;fillColor=#fff2cc;sketch=1;opacity=50;strokeColor=#d6b656;" vertex="1" parent="1">
          <mxGeometry x="580" y="440" width="280" height="20" as="geometry" />
        </mxCell>
        <mxCell id="VZ1daqJ9Y80Mt52T-TWn-152" value="&lt;font style=&quot;font-size: 14px&quot;&gt;st p0, addr&lt;/font&gt;" style="text;html=1;strokeColor=none;fillColor=none;align=center;verticalAlign=middle;whiteSpace=wrap;rounded=0;opacity=50;" vertex="1" parent="1">
          <mxGeometry x="470" y="402.5" width="130" height="30" as="geometry" />
        </mxCell>
        <mxCell id="VZ1daqJ9Y80Mt52T-TWn-153" value="" style="endArrow=classic;html=1;" edge="1" parent="1">
          <mxGeometry width="50" height="50" relative="1" as="geometry">
            <mxPoint x="495" y="450" as="sourcePoint" />
            <mxPoint x="575" y="450" as="targetPoint" />
          </mxGeometry>
        </mxCell>
        <mxCell id="VZ1daqJ9Y80Mt52T-TWn-154" value="" style="rounded=0;whiteSpace=wrap;html=1;" vertex="1" parent="1">
          <mxGeometry x="900" y="45" width="120" height="195" as="geometry" />
        </mxCell>
        <mxCell id="VZ1daqJ9Y80Mt52T-TWn-155" value="" style="rounded=0;whiteSpace=wrap;html=1;strokeWidth=1;opacity=70;" vertex="1" parent="1">
          <mxGeometry x="900" y="135" width="120" height="40" as="geometry" />
        </mxCell>
        <mxCell id="VZ1daqJ9Y80Mt52T-TWn-156" value="" style="endArrow=none;html=1;exitX=0;exitY=0.5;exitDx=0;exitDy=0;entryX=1;entryY=0.5;entryDx=0;entryDy=0;" edge="1" parent="1" source="VZ1daqJ9Y80Mt52T-TWn-155" target="VZ1daqJ9Y80Mt52T-TWn-155">
          <mxGeometry width="50" height="50" relative="1" as="geometry">
            <mxPoint x="810" y="285" as="sourcePoint" />
            <mxPoint x="860" y="235" as="targetPoint" />
          </mxGeometry>
        </mxCell>
        <mxCell id="VZ1daqJ9Y80Mt52T-TWn-157" value="p0" style="rounded=1;whiteSpace=wrap;html=1;strokeWidth=1;fillWeight=4;hachureGap=8;hachureAngle=45;fillColor=#fff2cc;sketch=1;opacity=50;strokeColor=#d6b656;" vertex="1" parent="1">
          <mxGeometry x="900" y="155" width="120" height="20" as="geometry" />
        </mxCell>
        <mxCell id="VZ1daqJ9Y80Mt52T-TWn-158" value="内存中的PTE" style="text;html=1;strokeColor=none;fillColor=none;align=center;verticalAlign=middle;whiteSpace=wrap;rounded=0;opacity=70;" vertex="1" parent="1">
          <mxGeometry x="920" y="100" width="80" height="20" as="geometry" />
        </mxCell>
        <mxCell id="VZ1daqJ9Y80Mt52T-TWn-159" value="TLB" style="text;html=1;strokeColor=none;fillColor=none;align=center;verticalAlign=middle;whiteSpace=wrap;rounded=0;opacity=70;" vertex="1" parent="1">
          <mxGeometry x="700" y="90" width="80" height="20" as="geometry" />
        </mxCell>
        <mxCell id="VZ1daqJ9Y80Mt52T-TWn-160" value="addr" style="text;html=1;strokeColor=none;fillColor=none;align=center;verticalAlign=middle;whiteSpace=wrap;rounded=0;" vertex="1" parent="1">
          <mxGeometry x="865" y="155" width="40" height="20" as="geometry" />
        </mxCell>
        <mxCell id="VZ1daqJ9Y80Mt52T-TWn-161" value="" style="rounded=0;whiteSpace=wrap;html=1;" vertex="1" parent="1">
          <mxGeometry x="580" y="125" width="280" height="80" as="geometry" />
        </mxCell>
        <mxCell id="VZ1daqJ9Y80Mt52T-TWn-162" value="" style="endArrow=none;html=1;entryX=1;entryY=0.75;entryDx=0;entryDy=0;" edge="1" parent="1" target="VZ1daqJ9Y80Mt52T-TWn-161">
          <mxGeometry width="50" height="50" relative="1" as="geometry">
            <mxPoint x="580" y="185" as="sourcePoint" />
            <mxPoint x="900" y="265" as="targetPoint" />
          </mxGeometry>
        </mxCell>
        <mxCell id="VZ1daqJ9Y80Mt52T-TWn-163" value="" style="endArrow=none;html=1;entryX=1;entryY=0.5;entryDx=0;entryDy=0;" edge="1" parent="1" target="VZ1daqJ9Y80Mt52T-TWn-161">
          <mxGeometry width="50" height="50" relative="1" as="geometry">
            <mxPoint x="580" y="164.5" as="sourcePoint" />
            <mxPoint x="780" y="164.5" as="targetPoint" />
          </mxGeometry>
        </mxCell>
        <mxCell id="VZ1daqJ9Y80Mt52T-TWn-164" value="" style="endArrow=none;html=1;entryX=1;entryY=0.25;entryDx=0;entryDy=0;" edge="1" parent="1" target="VZ1daqJ9Y80Mt52T-TWn-161">
          <mxGeometry width="50" height="50" relative="1" as="geometry">
            <mxPoint x="580" y="145" as="sourcePoint" />
            <mxPoint x="780" y="145" as="targetPoint" />
          </mxGeometry>
        </mxCell>
        <mxCell id="VZ1daqJ9Y80Mt52T-TWn-165" value="" style="endArrow=none;html=1;" edge="1" parent="1">
          <mxGeometry width="50" height="50" relative="1" as="geometry">
            <mxPoint x="660" y="205" as="sourcePoint" />
            <mxPoint x="660" y="125" as="targetPoint" />
          </mxGeometry>
        </mxCell>
        <mxCell id="VZ1daqJ9Y80Mt52T-TWn-166" value="" style="endArrow=none;html=1;" edge="1" parent="1">
          <mxGeometry width="50" height="50" relative="1" as="geometry">
            <mxPoint x="740" y="205" as="sourcePoint" />
            <mxPoint x="740" y="125" as="targetPoint" />
          </mxGeometry>
        </mxCell>
        <mxCell id="VZ1daqJ9Y80Mt52T-TWn-167" value="vaddr" style="text;html=1;strokeColor=none;fillColor=none;align=center;verticalAlign=middle;whiteSpace=wrap;rounded=0;" vertex="1" parent="1">
          <mxGeometry x="600" y="125" width="40" height="20" as="geometry" />
        </mxCell>
        <mxCell id="VZ1daqJ9Y80Mt52T-TWn-168" value="paddr" style="text;html=1;strokeColor=none;fillColor=none;align=center;verticalAlign=middle;whiteSpace=wrap;rounded=0;" vertex="1" parent="1">
          <mxGeometry x="680" y="125" width="40" height="20" as="geometry" />
        </mxCell>
        <mxCell id="VZ1daqJ9Y80Mt52T-TWn-169" value="a/d" style="text;html=1;strokeColor=none;fillColor=none;align=center;verticalAlign=middle;whiteSpace=wrap;rounded=0;" vertex="1" parent="1">
          <mxGeometry x="820" y="125" width="40" height="20" as="geometry" />
        </mxCell>
        <mxCell id="VZ1daqJ9Y80Mt52T-TWn-170" value="" style="endArrow=none;html=1;" edge="1" parent="1">
          <mxGeometry width="50" height="50" relative="1" as="geometry">
            <mxPoint x="820" y="205" as="sourcePoint" />
            <mxPoint x="820" y="125" as="targetPoint" />
          </mxGeometry>
        </mxCell>
        <mxCell id="VZ1daqJ9Y80Mt52T-TWn-171" value="pteaddr" style="text;html=1;strokeColor=none;fillColor=none;align=center;verticalAlign=middle;whiteSpace=wrap;rounded=0;" vertex="1" parent="1">
          <mxGeometry x="760" y="130" width="40" height="15" as="geometry" />
        </mxCell>
        <mxCell id="VZ1daqJ9Y80Mt52T-TWn-172" value="v0" style="text;html=1;strokeColor=none;fillColor=none;align=center;verticalAlign=middle;whiteSpace=wrap;rounded=0;opacity=50;" vertex="1" parent="1">
          <mxGeometry x="600" y="163" width="40" height="20" as="geometry" />
        </mxCell>
        <mxCell id="VZ1daqJ9Y80Mt52T-TWn-173" value="p0" style="text;html=1;strokeColor=none;fillColor=none;align=center;verticalAlign=middle;whiteSpace=wrap;rounded=0;opacity=50;" vertex="1" parent="1">
          <mxGeometry x="680" y="163" width="40" height="20" as="geometry" />
        </mxCell>
        <mxCell id="VZ1daqJ9Y80Mt52T-TWn-174" value="addr" style="text;html=1;strokeColor=none;fillColor=none;align=center;verticalAlign=middle;whiteSpace=wrap;rounded=0;opacity=50;" vertex="1" parent="1">
          <mxGeometry x="760" y="163" width="40" height="20" as="geometry" />
        </mxCell>
        <mxCell id="VZ1daqJ9Y80Mt52T-TWn-175" value="ad" style="text;html=1;strokeColor=none;fillColor=none;align=center;verticalAlign=middle;whiteSpace=wrap;rounded=0;opacity=50;" vertex="1" parent="1">
          <mxGeometry x="820" y="163" width="40" height="20" as="geometry" />
        </mxCell>
        <mxCell id="VZ1daqJ9Y80Mt52T-TWn-176" value="" style="rounded=1;whiteSpace=wrap;html=1;strokeWidth=2;fillWeight=4;hachureGap=8;hachureAngle=45;fillColor=#fff2cc;sketch=1;opacity=50;strokeColor=#d6b656;" vertex="1" parent="1">
          <mxGeometry x="580" y="163" width="280" height="20" as="geometry" />
        </mxCell>
      </root>
    </mxGraphModel>
  </diagram>
</mxfile>
